<svg width="16" height="16" xmlns="http://www.w3.org/2000/svg"><path d="M89.878 41.234a7.917 7.917 0 0 0-2.502 15.429c.396.072.54-.172.54-.382 0-.188-.006-.686-.01-1.346-2.202.478-2.667-1.062-2.667-1.062-.36-.914-.88-1.158-.88-1.158-.718-.49.055-.481.055-.481.795.056 1.213.816 1.213.816.706 1.21 1.853.86 2.304.657.072-.51.276-.86.502-1.058-1.757-.2-3.606-.879-3.606-3.912 0-.865.309-1.571.815-2.125-.081-.2-.353-1.005.078-2.095 0 0 .665-.212 2.177.811a7.6 7.6 0 0 1 1.982-.266c.672.004 1.35.091 1.982.266 1.511-1.024 2.174-.81 2.174-.81.433 1.09.16 1.894.08 2.094.507.554.813 1.26.813 2.125 0 3.041-1.85 3.71-3.614 3.906.284.245.537.728.537 1.466 0 1.058-.01 1.912-.01 2.172 0 .212.143.458.545.38a7.917 7.917 0 0 0-2.508-15.428" style="fill:#1b1817;fill-opacity:1;fill-rule:evenodd;stroke:none;stroke-width:.0352778" transform="translate(-81.879 -40.955)"/></svg>
