<svg width="16" height="16" xml:space="preserve" xmlns="http://www.w3.org/2000/svg"><g style="clip-rule:evenodd;fill-rule:evenodd;stroke-width:13.9731;stroke-linejoin:round;stroke-miterlimit:2"><g style="stroke-width:13.9731"><path d="M987.626 477.92h-33.127v-51.878c0-12.371-.221-28.296-17.229-28.296-17.254 0-19.894 13.478-19.894 27.395v52.775H884.25V371.234h31.801v14.579h.446a34.893 34.893 0 0 1 31.377-17.232c33.575 0 39.766 22.084 39.766 50.815zM846.872 356.651h-.004c-10.546 0-19.224-8.677-19.224-19.223s8.678-19.224 19.224-19.224c10.545 0 19.222 8.676 19.224 19.22v.004c0 10.544-8.676 19.222-19.22 19.223m16.563 121.269h-33.161V371.234h33.161zm140.705-190.479H813.627c-8.943-.101-16.388 7.171-16.497 16.114v191.304c.105 8.948 7.549 16.228 16.497 16.132h190.513c8.97.113 16.44-7.166 16.56-16.132V303.542c-.12-8.962-7.6-16.233-16.56-16.115" style="fill:#0a66c2;fill-rule:nonzero;stroke-width:13.9731" transform="matrix(.07157 0 0 .07157 -57.047 -20.57)"/></g></g></svg>